<svg width="117" height="40" viewBox="0 0 117 40" fill="none" xmlns="http://www.w3.org/2000/svg">
<path d="M8.29973 2.52487C4.16708 3.63713 0.683052 4.60088 0.557654 4.6665C0.432182 4.73218 0.26165 4.88946 0.178644 5.01598C0.0297519 5.24312 0.0275286 5.34141 0.00522072 12.6514C-0.0102688 17.7186 0.00848161 20.2874 0.0645106 20.7873C0.16308 21.666 0.340876 22.3197 0.697578 23.1152C2.07844 26.1945 5.55142 29.2511 11.1038 32.2737C12.38 32.9685 15.0625 34.2414 15.61 34.412C15.9867 34.5293 16.0114 34.5293 16.3881 34.412C16.9356 34.2414 19.6181 32.9685 20.8943 32.2737C25.8392 29.5817 29.0125 26.9676 30.7661 24.1413C31.1193 23.5721 31.5325 22.6424 31.7093 22.0194C31.9961 21.0086 32.0164 20.3389 31.9929 12.6514C31.9706 5.34141 31.9683 5.24312 31.8194 5.01598C31.7364 4.88946 31.7107 4.8079 31.4405 4.6665C31.1703 4.5251 16.2195 0.496217 15.9789 0.500003C15.8881 0.501464 12.4325 1.41262 8.29973 2.52487Z" fill="url(#paint0_linear_203_1501)"/>
<path fill-rule="evenodd" clip-rule="evenodd" d="M4.12427 10.1961L8.97478 8.83097L7.84905 4.84673L10.2736 4.16172L11.3635 8.01896L13.2776 7.47816L12.1878 3.6209L14.6274 2.93164L15.7596 6.87435C15.9312 6.82586 16.1049 6.77375 16.2802 6.72115C17.1455 6.46152 18.0501 6.19007 18.9442 6.28368C22.0334 6.60722 24.7984 11.3387 22.086 13.7204C21.9873 13.8071 21.9116 13.8959 21.9178 13.9178C21.924 13.9398 22.0883 13.9538 22.2829 13.949C25.9229 13.8594 27.9202 18.5802 26.2278 21.5748C25.1413 23.4974 22.9147 24.6036 20.8773 25.1103L22.0067 29.1079L19.5821 29.7929L18.4653 25.84L16.5512 26.3808L17.668 30.3337L15.2434 31.0187L14.1086 27.002L9.26183 28.3714L8.44224 25.4705L11.5344 24.5968C11.4564 24.3172 11.3778 24.0354 11.2987 23.7516C10.223 19.8943 9.04689 15.677 7.94356 11.8894L4.84961 12.7635L4.12427 10.1961ZM18.5267 11.6696C18.1274 10.2562 16.8645 9.56501 14.5518 10.2198L12.2391 10.8746L13.597 15.6808L13.8363 15.6132C13.9305 15.5865 14.031 15.5587 14.1365 15.5295C15.9343 15.0318 19.2197 14.1223 18.5267 11.6696ZM16.4842 23.2067C18.6082 22.6484 22.509 21.623 21.7835 18.9474C20.9554 15.8934 16.1267 17.1536 14.2925 18.1476L15.8093 23.3891C16.0015 23.3336 16.2302 23.2735 16.4842 23.2067Z" fill="white"/>
<path d="M48.804 14.9205C48.7131 14.0038 48.3229 13.2917 47.6335 12.7841C46.9441 12.2765 46.0085 12.0227 44.8267 12.0227C44.0237 12.0227 43.3456 12.1364 42.7926 12.3636C42.2396 12.5833 41.8153 12.8902 41.5199 13.2841C41.232 13.678 41.0881 14.125 41.0881 14.625C41.0729 15.0417 41.16 15.4053 41.3494 15.7159C41.5464 16.0265 41.8153 16.2955 42.1562 16.5227C42.4972 16.7424 42.8911 16.9356 43.3381 17.1023C43.785 17.2614 44.2623 17.3977 44.7699 17.5114L46.8608 18.0114C47.8759 18.2386 48.8078 18.5417 49.6562 18.9205C50.5047 19.2992 51.2396 19.7652 51.8608 20.3182C52.482 20.8712 52.9631 21.5227 53.304 22.2727C53.6525 23.0227 53.8305 23.8826 53.8381 24.8523C53.8305 26.2765 53.4669 27.5114 52.7472 28.5568C52.035 29.5947 51.0047 30.4015 49.6562 30.9773C48.3153 31.5455 46.6979 31.8295 44.804 31.8295C42.9252 31.8295 41.2888 31.5417 39.8949 30.9659C38.5085 30.3902 37.4252 29.5379 36.6449 28.4091C35.8722 27.2727 35.4669 25.8674 35.429 24.1932H40.1903C40.2434 24.9735 40.4669 25.625 40.8608 26.1477C41.2623 26.6629 41.7964 27.053 42.4631 27.3182C43.1373 27.5758 43.8987 27.7045 44.7472 27.7045C45.5805 27.7045 46.304 27.5833 46.9176 27.3409C47.5388 27.0985 48.0199 26.7614 48.3608 26.3295C48.7017 25.8977 48.8722 25.4015 48.8722 24.8409C48.8722 24.3182 48.7169 23.8788 48.4062 23.5227C48.1032 23.1667 47.6563 22.8636 47.0653 22.6136C46.482 22.3636 45.7661 22.1364 44.9176 21.9318L42.3835 21.2955C40.4214 20.8182 38.8722 20.072 37.7358 19.0568C36.5994 18.0417 36.035 16.6742 36.0426 14.9545C36.035 13.5455 36.41 12.3144 37.1676 11.2614C37.9328 10.2083 38.982 9.38636 40.3153 8.79545C41.6487 8.20454 43.1638 7.90909 44.8608 7.90909C46.5881 7.90909 48.0956 8.20454 49.3835 8.79545C50.679 9.38636 51.6866 10.2083 52.4062 11.2614C53.1259 12.3144 53.4972 13.5341 53.5199 14.9205H48.804ZM60.6278 31.5H55.3551L63.3892 8.22727H69.7301L77.7528 31.5H72.4801L66.6506 13.5455H66.4688L60.6278 31.5ZM60.2983 22.3523H72.7528V26.1932H60.2983V22.3523ZM80.554 31.5V8.22727H95.9631V12.2841H85.4744V17.8295H94.9403V21.8864H85.4744V31.5H80.554ZM99.2727 31.5V8.22727H114.955V12.2841H104.193V17.8295H114.148V21.8864H104.193V27.4432H115V31.5H99.2727Z" fill="white"/>
<defs>
<linearGradient id="paint0_linear_203_1501" x1="18.0498" y1="-12.0093" x2="-7.17955" y2="16.1262" gradientUnits="userSpaceOnUse">
<stop stop-color="#5C8FFF"/>
<stop offset="1" stop-color="#C14BFF"/>
</linearGradient>
</defs>
</svg>
