<?xml version="1.0" encoding="UTF-8"?>
<svg xmlns="http://www.w3.org/2000/svg" width="38" height="38" viewBox="0 0 38 38" fill="none">
  <g clip-path="url(#clip0_683_47)">
    <path d="M30.2013 18.9959V15.5371C30.2013 10.4914 26.8473 6.21477 22.252 4.81795V3.25195C22.252 1.45883 20.7932 0 19.0001 0C17.207 0 15.7481 1.45883 15.7481 3.25195V4.81795C11.1528 6.21477 7.79891 10.4913 7.79891 15.5371V18.9959C7.79891 23.4281 6.10949 27.6308 3.04188 30.8298C2.74126 31.1433 2.65678 31.6059 2.82718 32.0054C2.99758 32.4048 3.38999 32.6641 3.8243 32.6641H13.6892C14.1928 35.135 16.3827 37 19.0001 37C21.6175 37 23.8073 35.135 24.311 32.6641H34.1759C34.6102 32.6641 35.0025 32.4048 35.1729 32.0054C35.3433 31.6059 35.2588 31.1433 34.9583 30.8298C31.8907 27.6308 30.2013 23.428 30.2013 18.9959ZM17.9161 3.25195C17.9161 2.65424 18.4024 2.16797 19.0001 2.16797C19.5978 2.16797 20.0841 2.65424 20.0841 3.25195V4.38855C19.7273 4.35415 19.3657 4.33594 19.0001 4.33594C18.6344 4.33594 18.2729 4.35415 17.9161 4.38855V3.25195ZM19.0001 34.832C17.5869 34.832 16.382 33.9257 15.9346 32.6641H22.0656C21.6181 33.9257 20.4132 34.832 19.0001 34.832ZM6.16065 30.4961C8.62932 27.1869 9.96688 23.1822 9.96688 18.9959V15.5371C9.96688 10.5562 14.0192 6.50391 19.0001 6.50391C23.981 6.50391 28.0333 10.5562 28.0333 15.5371V18.9959C28.0333 23.1822 29.3709 27.1869 31.8396 30.4961H6.16065Z" fill="white"></path>
  </g>
  <defs>
    <clipPath id="clip0_683_47">
      <rect width="38" height="38" fill="white"></rect>
    </clipPath>
  </defs>
</svg>
