<?xml version="1.0" encoding="UTF-8"?>
<svg xmlns="http://www.w3.org/2000/svg" width="38" height="38" viewBox="0 0 38 38" fill="none">
  <g clip-path="url(#clip0_683_36)">
    <path d="M19 36C18.4875 36 17.9934 35.8145 17.6083 35.4775C16.154 34.207 14.7519 33.013 13.5148 31.9598L13.5085 31.9543C9.88162 28.8663 6.74969 26.1996 4.57056 23.5726C2.13461 20.6358 1 17.8513 1 14.8095C1 11.854 2.01431 9.12743 3.8559 7.13162C5.71945 5.1122 8.27652 4 11.0569 4C13.1349 4 15.0381 4.6564 16.7132 5.95081C17.5586 6.60419 18.3249 7.40383 19 8.33657C19.6754 7.40383 20.4414 6.60419 21.2871 5.95081C22.9622 4.6564 24.8653 4 26.9434 4C29.7235 4 32.2808 5.1122 34.1444 7.13162C35.986 9.12743 37 11.854 37 14.8095C37 17.8513 35.8657 20.6358 33.4297 23.5723C31.2506 26.1996 28.1189 28.8661 24.4926 31.9538C23.2534 33.0086 21.849 34.2045 20.3914 35.4781C20.0066 35.8145 19.5122 36 19 36ZM11.0569 6.10695C8.87253 6.10695 6.86588 6.97794 5.40607 8.55967C3.92456 10.1653 3.10855 12.3847 3.10855 14.8095C3.10855 17.3678 4.06024 19.6559 6.19406 22.2282C8.25647 24.7147 11.3241 27.3266 14.876 30.3509L14.8826 30.3564C16.1243 31.4137 17.532 32.6124 18.997 33.8922C20.4708 32.6099 21.8806 31.4093 23.1248 30.3504C26.6764 27.326 29.7438 24.7147 31.8062 22.2282C33.9398 19.6559 34.8914 17.3678 34.8914 14.8095C34.8914 12.3847 34.0754 10.1653 32.5939 8.55967C31.1344 6.97794 29.1275 6.10695 26.9434 6.10695C25.3432 6.10695 23.8741 6.61517 22.5769 7.61733C21.4208 8.51082 20.6155 9.64031 20.1434 10.4306C19.9006 10.837 19.4732 11.0796 19 11.0796C18.5268 11.0796 18.0994 10.837 17.8566 10.4306C17.3847 9.64031 16.5794 8.51082 15.4231 7.61733C14.1259 6.61517 12.6568 6.10695 11.0569 6.10695Z" fill="white"></path>
  </g>
  <defs>
    <clipPath id="clip0_683_36">
      <rect width="38" height="38" fill="white"></rect>
    </clipPath>
  </defs>
</svg>
