<?xml version="1.0" encoding="UTF-8"?>
<svg xmlns="http://www.w3.org/2000/svg" width="38" height="38" viewBox="0 0 38 38" fill="none">
  <g clip-path="url(#clip0_683_46)">
    <path d="M36.9863 22.6975C36.9863 21.3456 36.2599 20.1602 35.177 19.5109C35.5919 18.9118 35.8352 18.1849 35.8352 17.4026C35.8352 15.3556 34.1698 13.6901 32.1228 13.6901H24.2859C24.5261 12.6017 24.8546 10.9684 25.0833 9.25863C25.6786 4.80918 25.2718 2.34157 23.8031 1.49297C22.8875 0.964005 21.9004 0.856708 21.0234 1.19055C20.346 1.4486 19.431 2.08303 18.9097 3.6401L16.8499 9.03314C15.4839 12.4069 10.4316 16.0009 9.2358 16.8166H2.07862C1.49046 16.8166 1.01367 17.2935 1.01367 17.8815V33.5231C1.01367 34.1113 1.49053 34.5881 2.07862 34.5881H9.35759C13.4152 36.1883 17.6837 37 22.0486 37H30.5878C32.6348 37 34.3002 35.3346 34.3002 33.2876C34.3002 32.5707 34.096 31.9007 33.7427 31.3326C34.9802 30.7299 35.8351 29.4591 35.8351 27.9926C35.8351 27.2101 35.5917 26.4834 35.1768 25.8842C36.2599 25.235 36.9863 24.0494 36.9863 22.6975ZM8.49485 32.4582H3.14358V18.9466H8.49485V32.4582ZM33.2738 24.2801H32.1227C31.5346 24.2801 31.0578 24.7569 31.0578 25.345C31.0578 25.9332 31.5346 26.41 32.1227 26.41C32.9953 26.41 33.7053 27.1199 33.7053 27.9926C33.7053 28.8651 32.9953 29.5751 32.1227 29.5751H30.5879C29.9997 29.5751 29.5229 30.0519 29.5229 30.64C29.5229 31.2281 29.9998 31.705 30.5879 31.705C31.4605 31.705 32.1704 32.4149 32.1704 33.2875C32.1704 34.1601 31.4605 34.87 30.5879 34.87H22.0487C18.1264 34.87 14.2871 34.1722 10.6249 32.7946V18.4483C12.2332 17.3388 17.2973 13.6217 18.8292 9.8205C18.8316 9.81445 18.834 9.8084 18.8363 9.80236L20.9079 4.37824C20.9137 4.36305 20.9192 4.34765 20.9242 4.33225C21.1251 3.72405 21.4295 3.31518 21.7817 3.1811C22.1231 3.05095 22.49 3.19418 22.7376 3.33726C22.7467 3.34254 23.6351 4.00509 22.9744 8.95987C22.5992 11.7738 21.9176 14.4653 21.9109 14.4921C21.8297 14.8107 21.9004 15.149 22.1019 15.4086C22.3037 15.6682 22.614 15.8201 22.9429 15.8201H32.1229C32.9955 15.8201 33.7055 16.5301 33.7055 17.4026C33.7055 18.2752 32.9955 18.9852 32.1229 18.9852C31.5348 18.9852 31.058 19.462 31.058 20.0501C31.058 20.6383 31.5349 21.1151 32.1229 21.1151H33.274C34.1466 21.1151 34.8566 21.825 34.8566 22.6976C34.8565 23.5701 34.1464 24.2801 33.2738 24.2801Z" fill="white"></path>
  </g>
  <defs>
    <clipPath id="clip0_683_46">
      <rect width="38" height="38" fill="white"></rect>
    </clipPath>
  </defs>
</svg>
