<svg clip-rule="evenodd" fill-rule="evenodd" width="40" height="40" image-rendering="optimizeQuality" shape-rendering="geometricPrecision" text-rendering="geometricPrecision" viewBox="0 0 1707 1707"  xmlns="http://www.w3.org/2000/svg"><g id="Layer_x0020_1"><path d="m341 637 239 414 818-818c169-170 425 86 256 256l-986 986c-83 80-215 65-278-28-123-184-250-435-364-632-126-218 222-380 315-178zm196 498-267-461c-89-115-234-1-175 101 67 116 308 576 374 643 39 39 106 37 141 2 283-322 677-678 987-988 63-63 20-172-71-172-26 0-52 10-72 29l-863 861c-19 11-43 5-54-14z" fill-rule="nonzero"/><path d="m1454 289-863 861c-19 11-43 5-54-14v-1l-267-461c-89-115-234-1-175 101 67 116 308 576 374 643 39 39 106 37 141 2 283-322 677-678 987-988 63-63 20-172-71-172-26 0-52 10-72 29z" fill="#fff"/></g></svg>