<svg width="80" height="80" viewBox="0 0 80 80" fill="none" xmlns="http://www.w3.org/2000/svg">
<rect x="0.5" y="0.5" width="79" height="79" stroke="white"/>
<rect x="4.5" y="4.5" width="71" height="71" fill="#161616" stroke="white"/>
<path fill-rule="evenodd" clip-rule="evenodd" d="M57.5144 17.0643C57.4954 17.0552 57.4749 17.0487 57.4535 17.045C57.4382 17.0423 57.4228 17.0412 57.4077 17.0416H50.0472C50.0317 17.0412 50.0163 17.0424 50.0013 17.045C49.9391 17.0557 49.8853 17.0907 49.8498 17.1398C49.8338 17.1619 49.8215 17.187 49.8139 17.214L48.4987 21.3716L47.1812 25.5506L45.8543 29.7435L44.5226 33.9461L43.1909 38.1581L41.8593 42.3795L40.5229 46.6056L39.4182 50.1029L38.3732 46.6093L37.1124 42.3832L35.8515 38.1618L34.5907 33.9498L33.3346 29.7473L32.0832 25.5543L30.8365 21.3754L29.5984 17.2233C29.5757 17.1279 29.4952 17.0548 29.3959 17.0432C29.3849 17.0419 29.3737 17.0413 29.3625 17.0416H22.0023C21.9886 17.0413 21.9748 17.0421 21.961 17.0442C21.8976 17.0539 21.8424 17.0886 21.806 17.1381C21.7858 17.1656 21.7713 17.1976 21.7645 17.2324C21.7593 17.2588 21.7585 17.2864 21.7628 17.314C21.7649 17.3278 21.7681 17.3413 21.7725 17.3542L23.5275 22.9632L25.2889 28.6058L27.055 34.2674L28.8306 39.9527L30.6108 45.6521L32.3958 51.3609L34.1808 57.0744L35.9622 62.7811C35.9863 62.8751 36.0667 62.9465 36.1654 62.9573C36.1726 62.9582 36.18 62.9586 36.1873 62.9588C36.1904 62.9588 36.1935 62.9588 36.1966 62.9588H43.0292C43.046 62.9591 43.0627 62.9577 43.0789 62.9545C43.1021 62.95 43.1246 62.942 43.1453 62.931C43.1981 62.9029 43.2403 62.855 43.2598 62.7935L45.0683 57.08L46.8769 51.3617L48.6808 45.653L50.4847 39.9536L52.2839 34.2731L54.0736 28.6067L55.8585 22.9642L57.6382 17.3516C57.6393 17.3483 57.6403 17.345 57.6412 17.3416C57.6724 17.2297 57.6175 17.1128 57.5144 17.0643Z" fill="white"/>
</svg>
