<svg width="32" height="32" viewBox="0 0 32 32" fill="none" xmlns="http://www.w3.org/2000/svg">
<g filter="url(#filter0_b_409_178)">
<circle cx="16" cy="16" r="16" fill="url(#paint0_linear_409_178)" fill-opacity="0.3"/>
<circle cx="16" cy="16" r="15.5" stroke="#FFDC22"/>
</g>
<path d="M12.3999 23.2001C12.0816 23.2001 11.7764 23.0736 11.5514 22.8486L6.75137 18.0485C6.28275 17.5799 6.28275 16.8201 6.75137 16.3515C7.22004 15.8828 7.97984 15.8829 8.44841 16.3515L12.3998 20.303L23.5514 9.15145C24.02 8.68283 24.7799 8.68283 25.2484 9.15145C25.7171 9.62008 25.7171 10.3799 25.2484 10.8485L13.2484 22.8485C13.0234 23.0736 12.7182 23.2001 12.3999 23.2001Z" fill="white"/>
<defs>
<filter id="filter0_b_409_178" x="-10" y="-10" width="52" height="52" filterUnits="userSpaceOnUse" color-interpolation-filters="sRGB">
<feFlood flood-opacity="0" result="BackgroundImageFix"/>
<feGaussianBlur in="BackgroundImageFix" stdDeviation="5"/>
<feComposite in2="SourceAlpha" operator="in" result="effect1_backgroundBlur_409_178"/>
<feBlend mode="normal" in="SourceGraphic" in2="effect1_backgroundBlur_409_178" result="shape"/>
</filter>
<linearGradient id="paint0_linear_409_178" x1="0" y1="0" x2="36.4194" y2="6.25076" gradientUnits="userSpaceOnUse">
<stop stop-color="#FFDC22"/>
<stop offset="1" stop-color="#1EB32D"/>
</linearGradient>
</defs>
</svg>
