<svg width="256" height="80" viewBox="0 0 256 80" fill="none" xmlns="http://www.w3.org/2000/svg">
<path fill-rule="evenodd" clip-rule="evenodd" d="M239 51.4999C239.5 52.6666 240.9 54.3999 242.5 51.9999V42.9999H248.5C250.5 41.9999 254.6 39.4999 255 37.4999C255.5 34.9999 254 31.4999 251.5 28.4999C249.1 26.4999 242.833 26.9999 240 27.4999L239 28.9999V51.4999ZM242.5 30.4999V39.4999H248C248.208 39.3267 248.481 39.1521 248.782 38.9589C249.931 38.2228 251.5 37.218 251.5 34.9999C251.5 32.6727 249.658 31.6811 248.27 30.9341C247.988 30.7823 247.725 30.6407 247.5 30.4999H242.5Z" fill="white"/>
<path fill-rule="evenodd" clip-rule="evenodd" d="M216 50.5002L223.5 28.0002C224.167 27.167 225.7 25.9006 226.5 27.5002C227.3 29.0999 232.167 43.8333 234.5 51C234.5 51.8333 234.1 53.4 232.5 53C230.9 52.6 229.5 48.8335 229 47.0002L221 47L219 52.5L216.5 53C216.167 52.6667 215.6 51.7002 216 50.5002ZM225 35L222 43.5H228L225 35Z" fill="white"/>
<path d="M128 52.9999L127 52.4999L119 29.4999C119.167 27.9999 120 25.5999 122 27.9999C123.2 30.3999 126.833 41.3334 128.5 46.5002L134.5 27.5002C135.5 27.1669 137.5 27.0002 137.5 29.0002C137.1 31.0002 132.333 45.1669 130 52.0002L128 52.9999Z" fill="white"/>
<path d="M142.5 27.5002V30.0002H145.5V27.5002H142.5Z" fill="white"/>
<path d="M142 52.0002V36.0002C143.6 33.6002 145 35.0002 145.5 36.0002V52.0002C144.7 54.4002 142.833 53.0002 142 52.0002Z" fill="white"/>
<path d="M150.5 29.0002L158.5 52.4999C159.167 52.8333 160.7 53.1002 161.5 51.5002C162.3 49.9002 166.833 36.1666 169 29.4999C169.333 28.5 169.2 26.7002 166 27.5002C165.6 27.8999 161.833 40.3334 160 46.5002L153.5 27.9999C152.667 27.3333 150.9 26.6002 150.5 29.0002Z" fill="white"/>
<path d="M173.5 52.0002V36.0002C175.1 33.6002 176.5 35.0002 177 36.0002V52.0002C175.8 54.0002 174.167 52.8336 173.5 52.0002Z" fill="white"/>
<path d="M177 30.5002H173.5V27.5002H177V30.5002Z" fill="white"/>
<path d="M203 27.5002H209.5C212.7 28.3002 210.833 29.8336 209.5 30.5002H204C202.4 30.5002 201.333 32.1669 201 33.0002V47.0002C201 47.9355 201.389 48.2876 201.803 48.6625C202.053 48.889 202.312 49.1237 202.5 49.5002C202.871 50.2419 204.892 50.1585 207.135 50.0659C207.917 50.0336 208.725 50.0002 209.5 50.0002C211.9 50.8002 210.833 52.3336 210 53.0002H203C199 52.2002 197.667 49.0002 197.5 47.5002V32.5002C197.9 28.9002 201.333 27.6669 203 27.5002Z" fill="white"/>
<rect x="0.5" y="0.5" width="79" height="79" stroke="white"/>
<rect x="4.5" y="4.5" width="71" height="71" stroke="white"/>
<path fill-rule="evenodd" clip-rule="evenodd" d="M57.5141 17.0638C57.4951 17.0548 57.4747 17.0482 57.4533 17.0445C57.4379 17.0418 57.4226 17.0407 57.4074 17.0411H50.047C50.0315 17.0407 50.0161 17.0419 50.001 17.0445C49.9389 17.0552 49.8851 17.0902 49.8496 17.1393C49.8336 17.1614 49.8213 17.1865 49.8137 17.2135L48.4984 21.3711L47.181 25.5501L45.854 29.743L44.5224 33.9456L43.1907 38.1577L41.859 42.379L40.5226 46.6051L39.418 50.1024L38.373 46.6088L37.1121 42.3827L35.8512 38.1613L34.5904 33.9493L33.3343 29.7468L32.083 25.5538L30.8363 21.3749L29.5982 17.2229C29.5755 17.1274 29.495 17.0543 29.3957 17.0427C29.3847 17.0414 29.3735 17.0408 29.3622 17.0411H22.002C21.9884 17.0408 21.9746 17.0416 21.9608 17.0438C21.8973 17.0534 21.8422 17.0881 21.8058 17.1376C21.7855 17.1651 21.7711 17.1971 21.7643 17.2319C21.759 17.2583 21.7583 17.2859 21.7625 17.3135C21.7646 17.3273 21.7679 17.3408 21.7723 17.3537L23.5272 22.9627L25.2886 28.6054L27.0547 34.2669L28.8303 39.9522L30.6105 45.6516L32.3956 51.3604L34.1805 57.0739L35.9619 62.7806C35.9861 62.8746 36.0665 62.946 36.1651 62.9569C36.1724 62.9577 36.1797 62.9581 36.1871 62.9583C36.1902 62.9583 36.1933 62.9583 36.1964 62.9583H43.029C43.0458 62.9586 43.0624 62.9572 43.0786 62.954C43.1019 62.9495 43.1243 62.9416 43.1451 62.9305C43.1978 62.9024 43.2401 62.8545 43.2595 62.793L45.0681 57.0795L46.8767 51.3612L48.6806 45.6525L50.4844 39.9531L52.2836 34.2727L54.0734 28.6063L55.8583 22.9637L57.638 17.3511C57.6391 17.3478 57.6401 17.3445 57.641 17.3411C57.6722 17.2292 57.6172 17.1123 57.5141 17.0638Z" fill="white"/>
</svg>
