<svg width="32" height="32" viewBox="0 0 32 32" fill="none" xmlns="http://www.w3.org/2000/svg">
<path d="M8.24561 17.7547L11.093 25.6359C11.093 25.6359 11.449 26.3733 11.8302 26.3733C12.2114 26.3733 17.8812 20.4749 17.8812 20.4749L24.1862 8.29688L8.34721 15.7203L8.24561 17.7547Z" fill="#D7D7D7"/>
<path d="M12.0213 19.7754L11.4747 25.5846C11.4747 25.5846 11.2459 27.3646 13.0255 25.5846C14.8051 23.8046 16.5085 22.432 16.5085 22.432" fill="#ABABAB"/>
<path d="M8.29742 18.0366L2.44022 16.1282C2.44022 16.1282 1.74022 15.8442 1.96562 15.2002C2.01202 15.0674 2.10562 14.9544 2.38562 14.7602C3.68342 13.8556 26.4068 5.68816 26.4068 5.68816C26.4068 5.68816 27.0484 5.47196 27.4268 5.61576C27.5204 5.64474 27.6047 5.69806 27.6709 5.77027C27.7371 5.84249 27.783 5.931 27.8038 6.02676C27.8447 6.19589 27.8618 6.3699 27.8546 6.54376C27.8528 6.69416 27.8346 6.83356 27.8208 7.05216C27.6824 9.28516 23.5408 25.9508 23.5408 25.9508C23.5408 25.9508 23.293 26.926 22.4052 26.9594C22.187 26.9664 21.9697 26.9295 21.7661 26.8507C21.5625 26.7719 21.3769 26.653 21.2202 26.501C19.478 25.0024 13.4564 20.9556 12.1258 20.0656C12.0958 20.0451 12.0705 20.0185 12.0517 19.9874C12.0329 19.9564 12.0209 19.9216 12.0166 19.8856C11.998 19.7918 12.1 19.6756 12.1 19.6756C12.1 19.6756 22.5852 10.3556 22.8642 9.37716C22.8858 9.30136 22.8042 9.26396 22.6946 9.29716C21.9982 9.55336 9.92582 17.1772 8.59342 18.0186C8.49751 18.0476 8.39614 18.0537 8.29742 18.0366Z" fill="white"/>
</svg>
