<svg width="22" height="22" viewBox="0 0 22 22" fill="none" xmlns="http://www.w3.org/2000/svg">
<path fill-rule="evenodd" clip-rule="evenodd" d="M4.99483 22V7.81134H0.278786V22H4.99483ZM2.63679 5.87412C4.28137 5.87412 5.30498 4.78459 5.30498 3.42299C5.27433 2.03074 4.28137 0.971447 2.66799 0.971447C1.05477 0.971447 0 2.03074 0 3.42299C0 4.78459 1.0234 5.87412 2.60605 5.87412H2.63679Z" fill="white"/>
<path fill-rule="evenodd" clip-rule="evenodd" d="M7.60425 22H12.3202V14.0765C12.3202 13.6524 12.3509 13.2288 12.4754 12.9256C12.8164 12.0784 13.5923 11.2009 14.8952 11.2009C16.6017 11.2009 17.2843 12.502 17.2843 14.4094V22H21.9999V13.8644C21.9999 9.50631 19.6733 7.4784 16.5705 7.4784C14.0263 7.4784 12.9094 8.90045 12.2889 9.86906H12.3204V7.81134H7.60438C7.66626 9.14271 7.60425 22 7.60425 22Z" fill="white"/>
</svg>
