<svg width="440" height="440" viewBox="0 0 440 440" fill="none" xmlns="http://www.w3.org/2000/svg">
<path d="M69.2934 91.3699L70.2585 92.1704L65.5452 97.8529L64.5801 97.0524L69.2934 91.3699ZM52.6443 86.6803L65.7771 97.5733L64.9168 98.6106L51.7839 87.7176L52.6443 86.6803ZM62.859 74.7399L75.3349 86.3795L74.4156 87.3649L61.9396 75.7253L62.859 74.7399ZM82.4592 76.2428L75.4656 62.321L76.5235 61.3248L84.3394 77.4018L83.5631 78.1329L82.4592 76.2428ZM68.9221 68.4832L82.3909 76.307L84.2029 77.5303L83.4351 78.2534L67.8643 69.4794L68.9221 68.4832ZM98.8258 63.2336L99.6106 64.2116L93.3956 69.1991L92.6108 68.2211L98.8258 63.2336ZM82.9998 55.6644L93.6789 68.9717L92.637 69.8078L81.9579 56.5005L82.9998 55.6644ZM92.9367 57.4867L93.7215 58.4647L88.2834 62.8287L87.4986 61.8508L92.9367 57.4867ZM88.8857 50.9409L89.6705 51.9189L83.5013 56.8697L82.7165 55.8917L88.8857 50.9409ZM112.726 49.6714L108.942 37.332L109.848 36.7926L111.081 40.4226L115.08 53.5345L114.214 54.05L112.726 49.6714ZM103.323 40.6763L111.861 50.0502L114.899 53.6424L113.992 54.1818L102.144 41.3775L103.323 40.6763ZM119.71 45.3653L115.528 33.4124L116.696 32.7172L122.31 49.2314L121.404 49.7708L119.71 45.3653ZM109.959 36.7267L118.96 45.9616L122.089 49.3632L121.213 49.8846L111.665 40.075L109.063 37.2601L109.959 36.7267ZM135.496 31.8516L136.024 32.9888L128.297 36.5778L127.769 35.4406L135.496 31.8516ZM124.805 28.3926L131.993 43.8672L130.782 44.43L123.594 28.9554L124.805 28.3926ZM133.287 24.4531L140.475 39.9276L139.252 40.4954L132.064 25.0208L133.287 24.4531ZM146.505 20.1616L147.372 36.9054L146.073 37.3783L145.337 19.489L146.229 19.1644L146.505 20.1616ZM156.138 33.7158L146.031 20.3339L145.623 19.3848L146.504 19.0642L157.437 33.243L156.138 33.7158ZM153.352 28.3199L153.78 29.4982L146.556 32.1269L146.127 30.9486L153.352 28.3199ZM161.737 14.139L166.325 30.573L165.05 30.9291L160.461 14.495L161.737 14.139ZM166.421 12.8312L166.758 14.039L156.137 17.0042L155.8 15.7965L166.421 12.8312ZM182.552 9.30214L188.102 17.8474L190.944 8.05232L192.474 7.82445L188.965 19.1051L189.911 25.4569L188.589 25.6537L187.643 19.3019L180.999 9.53346L182.552 9.30214ZM210.35 13.0267L210.587 16.7105C210.66 17.841 210.596 18.8472 210.394 19.7292C210.2 20.6028 209.883 21.3434 209.445 21.9509C209.014 22.5579 208.469 23.0353 207.811 23.383C207.151 23.7228 206.397 23.9201 205.547 23.9748C204.705 24.0289 203.935 23.9297 203.238 23.677C202.548 23.4161 201.943 23.0127 201.422 22.4669C200.902 21.921 200.481 21.2278 200.161 20.3873C199.848 19.5384 199.655 18.5487 199.583 17.4183L199.346 13.7345C199.274 12.6118 199.338 11.6095 199.54 10.7275C199.742 9.84558 200.062 9.10085 200.5 8.49333C200.946 7.88531 201.495 7.41161 202.147 7.07222C202.805 6.72454 203.556 6.52363 204.398 6.46947C205.248 6.41482 206.021 6.51771 206.719 6.77815C207.417 7.03079 208.026 7.43004 208.546 7.97588C209.066 8.52173 209.479 9.21933 209.784 10.0687C210.09 10.918 210.278 11.9041 210.35 13.0267ZM209.266 16.7955L209.027 13.0883C208.967 12.1528 208.821 11.3441 208.59 10.6622C208.365 9.97207 208.062 9.40439 207.682 8.95917C207.301 8.51395 206.841 8.19119 206.304 7.99089C205.767 7.7906 205.159 7.71226 204.481 7.75588C203.826 7.798 203.245 7.9528 202.737 8.22028C202.238 8.48727 201.824 8.86619 201.495 9.35703C201.174 9.84738 200.943 10.4494 200.801 11.1631C200.659 11.869 200.617 12.6898 200.678 13.6253L200.916 17.3325C200.977 18.2759 201.123 19.0924 201.355 19.782C201.587 20.4639 201.898 21.0311 202.287 21.4836C202.683 21.9278 203.146 22.2503 203.676 22.4511C204.213 22.6514 204.809 22.7305 205.464 22.6884C206.143 22.6447 206.732 22.4894 207.231 22.2225C207.738 21.955 208.152 21.5761 208.473 21.0857C208.793 20.5876 209.021 19.9858 209.156 19.2804C209.29 18.5672 209.327 17.7389 209.266 16.7955ZM226.897 6.23539L228.232 6.26481L227.968 18.2853C227.939 19.5663 227.686 20.5883 227.208 21.3514C226.738 22.1147 226.113 22.6635 225.332 22.998C224.559 23.3248 223.708 23.4779 222.778 23.4575C221.825 23.4365 220.97 23.2457 220.212 22.8852C219.454 22.5168 218.861 21.9411 218.433 21.1581C218.005 20.375 217.805 19.343 217.833 18.0621L218.098 6.04156L219.434 6.07099L219.169 18.0915C219.147 19.0913 219.29 19.8876 219.597 20.4804C219.904 21.0733 220.336 21.5048 220.893 21.7749C221.45 22.045 222.087 22.188 222.806 22.2039C223.54 22.22 224.187 22.1053 224.747 21.8598C225.315 21.6145 225.766 21.2024 226.099 20.6237C226.432 20.0449 226.61 19.2557 226.632 18.2559L226.897 6.23539ZM252.151 24.436L251.972 25.6771L244.664 24.6233L244.843 23.3822L252.151 24.436ZM247.459 7.78736L245.024 24.6752L243.69 24.4828L246.126 7.595L247.459 7.78736ZM269.83 18.8261L269.012 22.4258C268.761 23.5305 268.414 24.4771 267.971 25.2656C267.536 26.0482 267.023 26.6686 266.43 27.1268C265.845 27.5867 265.187 27.8899 264.457 28.0365C263.728 28.1754 262.949 28.1505 262.118 27.9619C261.296 27.7749 260.586 27.4614 259.989 27.0214C259.401 26.5754 258.935 26.0169 258.591 25.3458C258.247 24.6747 258.04 23.8908 257.971 22.9939C257.912 22.0912 258.008 21.0874 258.259 19.9828L259.077 16.3831C259.326 15.2861 259.672 14.3433 260.116 13.5548C260.559 12.7662 261.078 12.1429 261.67 11.6847C262.271 11.2283 262.931 10.9297 263.652 10.7891C264.383 10.6425 265.159 10.6627 265.982 10.8496C266.812 11.0383 267.525 11.3565 268.121 11.8042C268.718 12.2442 269.188 12.7998 269.533 13.4709C269.877 14.142 270.075 14.928 270.126 15.829C270.178 16.73 270.079 17.7291 269.83 18.8261ZM267.721 22.1324L268.544 18.5099C268.752 17.5957 268.841 16.7788 268.812 16.0592C268.793 15.3338 268.664 14.7035 268.425 14.1686C268.186 13.6336 267.837 13.1938 267.378 12.8493C266.92 12.5048 266.359 12.2572 265.696 12.1067C265.057 11.9613 264.455 11.9449 263.893 12.0575C263.338 12.1718 262.834 12.4177 262.38 12.7952C261.933 13.1744 261.54 13.6861 261.202 14.3302C260.865 14.9667 260.592 15.742 260.385 16.6562L259.562 20.2788C259.352 21.2006 259.261 22.0251 259.288 22.7523C259.317 23.4718 259.454 24.1038 259.699 24.6481C259.953 25.1866 260.305 25.6272 260.756 25.97C261.215 26.3145 261.764 26.5595 262.404 26.7048C263.067 26.8554 263.676 26.8735 264.23 26.7592C264.793 26.6466 265.297 26.4007 265.744 26.0215C266.192 25.6347 266.581 25.1222 266.91 24.4839C267.241 23.8381 267.512 23.0543 267.721 22.1324ZM278.961 29.9227L287.73 17.0449L289.114 17.4853L278.862 32.1293L277.846 31.8061L278.961 29.9227ZM279.164 14.3207L278.872 29.8943L278.683 32.0724L277.678 31.7528L277.779 13.8803L279.164 14.3207ZM298.276 37.9376L297.799 39.0973L290.429 36.0665L290.906 34.9068L298.276 37.9376ZM297.254 20.4244L290.765 36.2047L289.529 35.6966L296.019 19.9163L297.254 20.4244ZM300.461 30.0046L299.984 31.1643L293.535 28.5123L294.012 27.3527L300.461 30.0046ZM304.234 23.2947L303.757 24.4544L296.441 21.4459L296.918 20.2862L304.234 23.2947ZM315.256 38.0132L315.453 37.6538C315.747 37.1199 316.158 36.7706 316.685 36.606C317.219 36.4451 317.777 36.5247 318.359 36.8448C318.955 37.1724 319.326 37.6083 319.472 38.1525C319.622 38.6899 319.553 39.2221 319.263 39.7492L319.065 40.1086C318.775 40.6356 318.363 40.9796 317.829 41.1405C317.298 41.2944 316.739 41.2095 316.15 40.8857C315.568 40.5657 315.2 40.1404 315.046 39.6098C314.896 39.0725 314.966 38.5402 315.256 38.0132ZM336.659 51.5846L337.62 41.2083L338.928 42.1604L337.935 50.9478L339.877 52.3621L338.99 53.2817L336.659 51.5846ZM337.356 51.9615L328.655 55.7871L327.282 54.7867L337.426 50.4323L337.356 51.9615ZM344.924 46.5275L334.879 60.3198L333.799 59.5333L343.844 45.741L344.924 46.5275ZM351.109 51.0326L341.519 55.1238L339.217 53.4473L339.839 52.3345L341.753 53.7282L349.812 50.0874L351.109 51.0326ZM339.994 64.0452L340.956 54.5832L342.399 54.0543L341.358 65.0387L339.994 64.0452ZM348.662 67.6525L364.275 62.1433L365.262 63.0267L353.88 75.7382L352.893 74.8549L362.595 64.0204L346.965 69.5471L345.97 68.6559L357.352 55.9443L358.347 56.8355L348.662 67.6525ZM368.727 78.8673L366.013 75.9817L366.894 75.1217L369.246 77.6231C369.717 78.124 370.204 78.4651 370.707 78.6463C371.215 78.8333 371.728 78.8546 372.247 78.7103C372.77 78.5717 373.286 78.2642 373.792 77.7879C374.316 77.2955 374.663 76.7977 374.833 76.2945C375.009 75.797 375.008 75.2885 374.83 74.769C374.664 74.2499 374.324 73.7171 373.81 73.1707L371.779 71.0108L360.262 81.84L359.347 80.8668L371.777 69.1786L374.723 72.3118C375.221 72.8411 375.603 73.3779 375.868 73.9222C376.144 74.4668 376.287 75.0128 376.298 75.5603C376.315 76.1024 376.19 76.643 375.925 77.182C375.665 77.7267 375.253 78.264 374.69 78.7938C374.178 79.2754 373.623 79.6093 373.026 79.7955C372.429 79.9816 371.831 80.0184 371.232 79.9061C370.638 79.7994 370.08 79.5307 369.557 79.1001L368.727 78.8673ZM362.686 84.4183L359.724 81.268L361.127 80.9299L363.6 83.5594C364.071 84.0602 364.575 84.3908 365.111 84.551C365.654 84.7058 366.204 84.6979 366.762 84.5272C367.331 84.3568 367.883 84.02 368.418 83.517C368.885 83.0781 369.228 82.5996 369.449 82.0813C369.669 81.563 369.727 81.0314 369.622 80.4866C369.523 79.9364 369.224 79.3966 368.727 78.8673L366.977 77.0062L367.889 76.1803L370.338 78.7842L370.19 79.2771C370.582 79.8087 370.8 80.3819 370.842 80.9967C370.889 81.6171 370.784 82.2302 370.528 82.8358C370.272 83.4414 369.882 83.9903 369.358 84.4827C368.601 85.1945 367.827 85.6543 367.036 85.862C366.25 86.0645 365.485 86.0437 364.741 85.7997C364.003 85.5504 363.318 85.0899 362.686 84.4183ZM373.178 92.315L389.509 89.5868L390.328 90.6274L376.921 101.181L376.102 100.14L387.529 91.1452L371.18 93.8878L370.354 92.8381L383.761 82.2847L384.587 83.3344L373.178 92.315ZM403.169 109.485L388.531 118.252L387.85 117.116L402.488 108.349L403.169 109.485ZM405.667 113.658L404.592 114.302L398.926 104.841L400.001 104.197L405.667 113.658ZM396.909 127.894L413.446 128.714L414.024 129.905L398.674 137.354L398.096 136.163L411.179 129.814L394.622 129.005L394.038 127.803L409.389 120.353L409.972 121.555L396.909 127.894ZM417.923 138.693L418.387 139.958L406.083 149.975L421.954 149.684L422.41 150.927L404.329 151.18L403.974 150.212L417.923 138.693ZM417.781 138.308L418.185 139.408L409.198 142.879L402.222 145.437L401.762 144.183L417.781 138.308ZM422.155 150.234L422.563 151.345L406.544 157.22L406.084 155.966L413.059 153.408L422.155 150.234ZM411.412 164.737L409.833 165.185C409.142 165.381 408.432 165.428 407.705 165.326C406.98 165.232 406.326 165.003 405.744 164.641L406.103 163.674C406.485 163.817 406.855 163.919 407.213 163.98C407.566 164.05 407.922 164.075 408.282 164.054C408.644 164.041 409.024 163.978 409.422 163.864L411.034 163.407L411.412 164.737ZM416.633 196.613L411.347 197.322L411.169 196.164L415.234 195.537L415.037 194.263L416.242 194.077L416.633 196.613ZM429.769 177.855L429.976 179.198L414.353 181.61L415.202 187.111L430.826 184.699L431.031 186.031L415.407 188.443L416.255 193.932L431.878 191.521L432.082 192.841L415.219 195.444L412.906 180.457L429.769 177.855ZM427.09 213.157L423.404 213.344C422.272 213.402 421.267 213.324 420.388 213.11C419.517 212.904 418.781 212.578 418.179 212.131C417.578 211.692 417.108 211.141 416.769 210.478C416.438 209.814 416.251 209.057 416.208 208.207C416.165 207.364 416.275 206.596 416.537 205.902C416.807 205.215 417.219 204.615 417.772 204.102C418.324 203.589 419.023 203.178 419.868 202.87C420.721 202.568 421.713 202.389 422.845 202.331L426.531 202.144C427.655 202.087 428.656 202.165 429.535 202.379C430.414 202.592 431.155 202.922 431.756 203.369C432.358 203.823 432.824 204.379 433.155 205.034C433.494 205.698 433.685 206.451 433.727 207.294C433.771 208.144 433.657 208.916 433.387 209.611C433.125 210.304 432.718 210.908 432.165 211.421C431.612 211.934 430.909 212.337 430.056 212.631C429.202 212.925 428.214 213.1 427.09 213.157ZM423.337 212.022L427.047 211.833C427.983 211.786 428.794 211.651 429.478 211.428C430.172 211.213 430.743 210.918 431.194 210.543C431.644 210.168 431.973 209.714 432.18 209.179C432.388 208.644 432.474 208.038 432.44 207.359C432.407 206.703 432.26 206.12 431.999 205.609C431.739 205.106 431.366 204.687 430.879 204.352C430.393 204.025 429.794 203.785 429.083 203.634C428.379 203.482 427.559 203.429 426.622 203.477L422.912 203.665C421.968 203.713 421.15 203.849 420.457 204.072C419.772 204.294 419.201 204.597 418.743 204.98C418.294 205.371 417.965 205.829 417.757 206.356C417.549 206.891 417.462 207.486 417.496 208.141C417.53 208.82 417.677 209.411 417.938 209.914C418.198 210.425 418.571 210.844 419.057 211.171C419.551 211.498 420.15 211.734 420.853 211.878C421.565 212.022 422.392 212.07 423.337 212.022ZM433.596 232.083L416.584 230.761L416.689 229.417L433.7 230.74L433.596 232.083ZM432.903 240.998L424.35 233.986L424.594 230.843L425.867 230.801L425.674 233.289L433.032 239.327L432.903 240.998ZM415.987 238.448L424.589 233.181L425.803 234.04L415.859 240.096L415.987 238.448ZM423.778 257.739L420.136 257.141C419.018 256.957 418.052 256.668 417.238 256.273C416.431 255.887 415.78 255.413 415.287 254.849C414.792 254.292 414.45 253.654 414.259 252.934C414.076 252.215 414.054 251.436 414.192 250.596C414.328 249.763 414.598 249.035 415.001 248.413C415.411 247.799 415.94 247.3 416.589 246.916C417.238 246.531 418.008 246.278 418.899 246.155C419.797 246.041 420.804 246.076 421.922 246.259L425.565 246.857C426.675 247.04 427.637 247.328 428.451 247.723C429.265 248.118 429.919 248.597 430.412 249.161C430.904 249.733 431.242 250.374 431.426 251.085C431.617 251.805 431.644 252.582 431.507 253.414C431.369 254.255 431.095 254.985 430.684 255.607C430.281 256.229 429.755 256.733 429.106 257.117C428.457 257.502 427.684 257.747 426.788 257.853C425.892 257.959 424.889 257.921 423.778 257.739ZM420.35 255.834L424.016 256.436C424.941 256.588 425.762 256.628 426.479 256.555C427.201 256.492 427.823 256.325 428.342 256.054C428.862 255.783 429.279 255.408 429.596 254.929C429.912 254.451 430.125 253.876 430.235 253.205C430.341 252.558 430.321 251.957 430.175 251.402C430.027 250.856 429.751 250.367 429.346 249.936C428.941 249.513 428.406 249.153 427.743 248.854C427.087 248.556 426.297 248.331 425.372 248.179L421.706 247.578C420.773 247.424 419.944 247.383 419.22 247.455C418.504 247.527 417.881 247.702 417.353 247.979C416.831 248.266 416.412 248.644 416.097 249.115C415.781 249.594 415.57 250.157 415.464 250.804C415.354 251.475 415.373 252.084 415.52 252.631C415.667 253.185 415.943 253.674 416.348 254.097C416.762 254.521 417.297 254.878 417.954 255.168C418.619 255.459 419.417 255.681 420.35 255.834ZM428.706 267.304L420.777 269.342L426.777 274.903L426.385 276.448L419.397 269.825L409.815 272.374L410.204 270.84L418.392 268.736L412.203 262.969L412.595 261.424L419.795 268.258L429.096 265.771L428.706 267.304ZM421.736 288.059L408.172 278.204L408.621 276.896L422.993 287.574L422.684 288.472L421.736 288.059ZM405.139 287.025L421.9 287.582L422.894 287.862L422.589 288.749L404.69 288.333L405.139 287.025ZM411.087 288.252L409.901 287.844L412.4 280.574L413.586 280.982L411.087 288.252ZM408.369 303.653L407.234 303.148L409.719 297.558L410.854 298.063L408.369 303.653ZM403.895 304.024L403.348 305.256C402.343 304.689 401.549 304.041 400.967 303.313C400.385 302.584 400.041 301.781 399.934 300.904C399.832 300.038 399.997 299.119 400.428 298.149C400.764 297.392 401.235 296.785 401.84 296.327C402.443 295.876 403.152 295.568 403.97 295.401C404.785 295.242 405.673 295.235 406.634 295.38C407.6 295.535 408.611 295.848 409.667 296.317L411.606 297.179C412.662 297.648 413.57 298.193 414.329 298.812C415.088 299.432 415.682 300.097 416.109 300.809C416.534 301.528 416.776 302.272 416.835 303.042C416.895 303.813 416.753 304.583 416.41 305.354C415.988 306.304 415.425 307.024 414.72 307.514C414.018 308.014 413.198 308.291 412.26 308.344C411.329 308.401 410.307 308.237 409.195 307.854L409.742 306.623C410.616 306.908 411.407 307.042 412.116 307.024C412.829 307.016 413.449 306.834 413.975 306.477C414.505 306.132 414.934 305.587 415.264 304.845C415.534 304.238 415.635 303.637 415.565 303.042C415.493 302.455 415.27 301.881 414.894 301.321C414.526 300.764 414.02 300.239 413.375 299.748C412.73 299.256 411.965 298.813 411.08 298.42L409.12 297.549C408.442 297.247 407.781 297.013 407.137 296.847C406.489 296.687 405.878 296.6 405.304 296.584C404.727 296.575 404.196 296.643 403.713 296.787C403.23 296.932 402.805 297.157 402.438 297.464C402.074 297.782 401.787 298.179 401.574 298.658C401.231 299.429 401.095 300.129 401.166 300.759C401.236 301.389 401.501 301.968 401.958 302.496C402.42 303.035 403.066 303.544 403.895 304.024ZM410.3 317.815L409.626 318.996L395.897 311.158L393.138 315.992L406.866 323.83L406.198 325L392.469 317.163L389.715 321.986L403.444 329.824L402.782 330.984L387.964 322.525L395.482 309.356L410.3 317.815ZM380.351 336.405L379.326 335.684L383.573 329.645L384.599 330.367L380.351 336.405ZM397.32 339.758L383.364 329.942L384.139 328.84L398.096 338.656L397.32 339.758ZM388.066 352.488L374.721 341.856L375.561 340.802L388.906 351.434L388.066 352.488ZM368.408 352.517L376.465 365.852L375.488 366.928L366.443 351.508L367.16 350.719L368.408 352.517ZM382.509 359.199L368.471 352.448L366.569 351.37L367.279 350.589L383.486 358.123L382.509 359.199ZM353.104 366.761L352.245 365.847L358.054 360.391L358.912 361.305L353.104 366.761ZM369.471 373.076L357.789 360.64L358.762 359.725L370.445 372.162L369.471 373.076ZM359.422 372.033L358.564 371.119L363.646 366.345L364.504 367.259L359.422 372.033ZM363.97 378.243L363.112 377.329L368.877 371.914L369.736 372.827L363.97 378.243ZM340.314 381.377L345.052 393.383L344.191 393.991L342.678 390.469L337.665 377.71L338.488 377.128L340.314 381.377ZM350.393 389.609L341.147 380.932L337.837 377.588L338.699 376.98L351.512 388.818L350.393 389.609ZM333.689 386.216L338.793 397.805L337.683 398.59L330.794 382.566L331.655 381.957L333.689 386.216ZM344.086 394.066L334.39 385.563L331.004 382.417L331.837 381.829L342.122 390.861L344.937 393.464L344.086 394.066ZM319.013 400.926L318.397 399.834L325.818 395.649L326.434 396.741L319.013 400.926ZM329.942 403.534L321.56 388.673L322.724 388.016L331.106 402.878L329.942 403.534ZM321.797 408.128L313.415 393.267L314.589 392.605L322.971 407.466L321.797 408.128ZM308.968 413.445L306.777 396.823L308.034 396.249L310.185 414.023L309.322 414.418L308.968 413.445ZM298.291 400.697L309.427 413.236L309.908 414.15L309.055 414.539L297.033 401.272L298.291 400.697ZM301.496 405.855L300.976 404.715L307.969 401.522L308.489 402.662L301.496 405.855ZM294.246 420.656L288.383 404.632L289.627 404.177L295.49 420.201L294.246 420.656ZM289.679 422.327L289.248 421.149L299.604 417.36L300.035 418.538L289.679 422.327ZM273.886 427.124L267.68 419.043L265.619 429.032L264.112 429.38L266.721 417.857L265.277 411.6L266.578 411.3L268.022 417.557L275.416 426.771L273.886 427.124ZM245.878 425.601L245.352 421.948C245.191 420.826 245.176 419.818 245.307 418.923C245.432 418.037 245.689 417.274 246.079 416.634C246.46 415.995 246.966 415.476 247.595 415.077C248.226 414.687 248.962 414.431 249.805 414.309C250.64 414.189 251.415 414.228 252.13 414.425C252.839 414.63 253.474 414.985 254.036 415.488C254.598 415.991 255.071 416.649 255.457 417.462C255.835 418.284 256.105 419.255 256.267 420.376L256.793 424.03C256.953 425.144 256.967 426.148 256.836 427.043C256.704 427.938 256.444 428.706 256.054 429.346C255.657 429.987 255.147 430.502 254.525 430.892C253.895 431.29 253.163 431.55 252.328 431.67C251.485 431.791 250.706 431.75 249.989 431.545C249.274 431.348 248.636 430.998 248.074 430.495C247.512 429.991 247.046 429.328 246.675 428.506C246.304 427.683 246.038 426.715 245.878 425.601ZM246.663 421.759L247.192 425.436C247.326 426.364 247.535 427.159 247.819 427.82C248.097 428.49 248.444 429.033 248.859 429.446C249.273 429.86 249.756 430.146 250.308 430.303C250.859 430.461 251.472 430.491 252.144 430.394C252.794 430.301 253.361 430.101 253.846 429.794C254.323 429.489 254.706 429.078 254.995 428.563C255.276 428.049 255.459 427.431 255.544 426.708C255.631 425.993 255.607 425.172 255.474 424.244L254.945 420.567C254.81 419.631 254.6 418.829 254.314 418.159C254.029 417.498 253.675 416.957 253.251 416.536C252.821 416.125 252.334 415.84 251.79 415.681C251.239 415.524 250.638 415.492 249.989 415.585C249.316 415.682 248.741 415.883 248.264 416.189C247.78 416.495 247.397 416.906 247.115 417.42C246.835 417.941 246.656 418.559 246.577 419.273C246.499 419.995 246.528 420.823 246.663 421.759ZM229.88 433.653L228.546 433.726L227.89 421.721C227.82 420.441 227.994 419.403 228.412 418.606C228.822 417.809 229.404 417.213 230.157 416.82C230.902 416.435 231.739 416.217 232.668 416.166C233.619 416.114 234.487 416.239 235.27 416.54C236.054 416.85 236.689 417.378 237.176 418.126C237.663 418.874 237.941 419.888 238.011 421.167L238.668 433.173L237.334 433.246L236.677 421.24C236.623 420.242 236.419 419.459 236.068 418.891C235.716 418.323 235.252 417.926 234.676 417.7C234.101 417.473 233.454 417.379 232.736 417.418C232.003 417.458 231.366 417.622 230.827 417.91C230.279 418.198 229.861 418.644 229.573 419.246C229.286 419.849 229.169 420.649 229.224 421.648L229.88 433.653ZM203.307 417.469L203.388 416.218L210.755 416.697L210.674 417.948L203.307 417.469ZM209.286 433.7L210.393 416.673L211.738 416.76L210.631 433.787L209.286 433.7ZM186.124 424.451L186.656 420.798C186.819 419.677 187.091 418.706 187.471 417.885C187.842 417.071 188.305 416.412 188.86 415.909C189.407 415.404 190.039 415.05 190.756 414.846C191.471 414.651 192.25 414.614 193.093 414.737C193.928 414.858 194.66 415.115 195.29 415.507C195.911 415.905 196.419 416.425 196.815 417.067C197.211 417.709 197.479 418.474 197.618 419.363C197.748 420.258 197.731 421.266 197.568 422.387L197.036 426.04C196.874 427.154 196.603 428.121 196.223 428.942C195.843 429.763 195.375 430.425 194.82 430.928C194.258 431.431 193.622 431.78 192.915 431.977C192.198 432.181 191.423 432.222 190.588 432.1C189.745 431.977 189.009 431.716 188.381 431.317C187.751 430.925 187.238 430.408 186.842 429.766C186.446 429.124 186.187 428.356 186.064 427.462C185.942 426.568 185.962 425.564 186.124 424.451ZM187.966 420.989L187.431 424.665C187.296 425.593 187.271 426.414 187.356 427.129C187.433 427.851 187.611 428.469 187.891 428.984C188.172 429.498 188.554 429.909 189.038 430.216C189.522 430.524 190.101 430.726 190.773 430.824C191.423 430.919 192.023 430.888 192.575 430.732C193.119 430.574 193.603 430.289 194.026 429.877C194.441 429.464 194.793 428.923 195.079 428.254C195.365 427.593 195.576 426.799 195.711 425.871L196.246 422.195C196.382 421.259 196.408 420.43 196.324 419.708C196.239 418.992 196.053 418.373 195.766 417.85C195.47 417.333 195.084 416.922 194.607 416.615C194.123 416.308 193.556 416.107 192.907 416.012C192.234 415.914 191.626 415.944 191.082 416.102C190.53 416.258 190.047 416.543 189.631 416.956C189.215 417.377 188.867 417.919 188.589 418.581C188.31 419.251 188.103 420.054 187.966 420.989ZM176.148 414.107L168.419 427.634L167.003 427.304L176.073 411.899L177.112 412.142L176.148 414.107ZM177.172 429.676L176.239 414.128L176.256 411.942L177.283 412.181L178.587 430.007L177.172 429.676ZM156.261 407.651L156.643 406.457L164.232 408.888L163.849 410.082L156.261 407.651ZM158.681 425.026L163.886 408.777L165.158 409.184L159.953 425.433L158.681 425.026ZM154.717 415.733L155.1 414.539L161.74 416.666L161.358 417.86L154.717 415.733ZM151.494 422.724L151.876 421.529L159.409 423.943L159.027 425.137L151.494 422.724ZM139.341 408.914L139.173 409.288C138.923 409.844 138.542 410.225 138.03 410.431C137.51 410.635 136.947 410.6 136.342 410.328C135.722 410.049 135.317 409.645 135.127 409.114C134.934 408.59 134.961 408.054 135.207 407.506L135.375 407.132C135.622 406.583 136.005 406.207 136.525 406.003C137.041 405.807 137.606 405.847 138.219 406.122C138.824 406.394 139.225 406.789 139.422 407.305C139.615 407.829 139.588 408.365 139.341 408.914ZM116.914 397.068L116.766 407.487L115.388 406.64L115.692 397.802L113.646 396.544L114.458 395.558L116.914 397.068ZM116.19 396.746L124.566 392.254L126.014 393.144L116.24 398.276L116.19 396.746ZM109.07 402.754L118.008 388.22L119.146 388.92L110.208 403.454L109.07 402.754ZM102.551 398.745L111.793 393.919L114.219 395.41L113.686 396.568L111.669 395.328L103.919 399.586L102.551 398.745ZM112.618 384.905L112.397 394.414L110.999 395.053L111.18 384.021L112.618 384.905ZM103.695 381.987L88.5617 388.704L87.509 387.9L97.859 374.335L98.9117 375.139L90.0901 386.7L105.238 379.965L106.3 380.776L95.9498 394.341L94.8877 393.53L103.695 381.987ZM82.811 372.37L85.7398 375.037L84.9287 375.962L82.3899 373.651C81.8815 373.188 81.3696 372.885 80.8542 372.744C80.333 372.597 79.8195 372.615 79.3138 372.799C78.8024 372.978 78.3126 373.325 77.8444 373.839C77.3605 374.37 77.0532 374.893 76.9225 375.408C76.786 375.918 76.8263 376.425 77.0435 376.929C77.2496 377.434 77.63 377.938 78.1845 378.443L80.3767 380.439L91.02 368.75L92.0078 369.65L80.5204 382.266L77.3403 379.37C76.8031 378.881 76.3812 378.376 76.0747 377.854C75.7572 377.332 75.5718 376.799 75.5187 376.254C75.4602 375.714 75.5424 375.166 75.7651 374.608C75.9821 374.045 76.3509 373.477 76.8716 372.905C77.345 372.385 77.8722 372.01 78.4531 371.778C79.0339 371.546 79.6273 371.463 80.2332 371.528C80.8333 371.589 81.4107 371.813 81.9653 372.202L82.811 372.37ZM88.4032 366.368L91.6005 369.279L90.2278 369.725L87.559 367.295C87.0506 366.832 86.5227 366.541 85.9752 366.423C85.4224 366.311 84.8745 366.361 84.3315 366.575C83.7774 366.789 83.2532 367.167 82.7587 367.71C82.3274 368.184 82.022 368.688 81.8423 369.222C81.6627 369.755 81.6463 370.29 81.793 370.825C81.9345 371.366 82.2738 371.881 82.811 372.37L84.7 374.09L83.8542 374.984L81.2114 372.578L81.3206 372.075C80.888 371.575 80.627 371.021 80.5376 370.411C80.4424 369.796 80.4991 369.177 80.7077 368.553C80.9163 367.929 81.2626 367.352 81.7465 366.82C82.446 366.052 83.1822 365.534 83.9549 365.265C84.7224 365.003 85.4865 364.964 86.2474 365.15C87.0029 365.341 87.7215 365.747 88.4032 366.368ZM77.3307 359.311L61.2634 363.307L60.3655 362.334L72.9067 350.765L73.8046 351.738L63.1153 361.599L79.1999 357.587L80.1057 358.569L67.5645 370.138L66.6586 369.156L77.3307 359.311ZM46.0824 344.537L59.994 334.658L60.7607 335.737L46.8491 345.616L46.0824 344.537ZM43.2666 340.571L44.289 339.845L50.6737 348.836L49.6514 349.562L43.2666 340.571ZM50.8885 325.702L34.3389 326.192L33.6683 325.05L48.3817 316.411L49.0522 317.553L36.5115 324.917L53.0813 324.414L53.7578 325.566L39.0444 334.206L38.368 333.054L50.8885 325.702ZM29.0905 316.608L28.5273 315.383L39.9943 304.419L24.1975 305.972L23.6441 304.769L41.6477 303.078L42.0787 304.015L29.0905 316.608ZM29.262 316.98L28.7722 315.916L37.4547 311.74L44.2044 308.635L44.7627 309.849L29.262 316.98ZM23.9527 305.44L23.458 304.364L38.9587 297.233L39.5171 298.447L32.7674 301.552L23.9527 305.44ZM33.5128 290.121L35.0516 289.552C35.7257 289.302 36.4293 289.201 37.1625 289.246C37.8929 289.284 38.5623 289.461 39.1708 289.778L38.8878 290.769C38.4961 290.656 38.1192 290.583 37.7573 290.55C37.3999 290.508 37.0429 290.51 36.686 290.559C36.3265 290.6 35.9525 290.693 35.5642 290.837L33.9924 291.418L33.5128 290.121ZM25.7898 258.76L31.0029 257.635L31.2727 258.775L27.2699 259.722L27.5667 260.977L26.3807 261.258L25.7898 258.76ZM14.1787 278.499L13.8658 277.176L29.2496 273.536L27.968 268.119L12.5842 271.759L12.2739 270.448L27.6578 266.808L26.3789 261.402L10.995 265.042L10.6874 263.742L27.2915 259.814L30.7828 274.57L14.1787 278.499ZM14.0718 243.078L17.7327 242.605C18.8562 242.46 19.8645 242.46 20.7576 242.604C21.6419 242.742 22.4013 243.01 23.0357 243.409C23.6692 243.799 24.1805 244.312 24.5698 244.947C24.9514 245.583 25.1968 246.324 25.3059 247.168C25.4141 248.005 25.3645 248.779 25.1572 249.492C24.9412 250.197 24.5775 250.827 24.0662 251.381C23.555 251.936 22.8902 252.4 22.072 252.774C21.245 253.14 20.2698 253.396 19.1463 253.542L15.4854 254.015C14.3696 254.159 13.3652 254.159 12.4722 254.014C11.5791 253.87 10.8153 253.598 10.1809 253.2C9.54542 252.794 9.03742 252.276 8.65687 251.648C8.26757 251.013 8.01884 250.277 7.91068 249.44C7.80152 248.596 7.85447 247.817 8.06951 247.104C8.27681 246.392 8.63609 245.758 9.14736 245.204C9.65862 244.649 10.3282 244.193 11.1562 243.833C11.9842 243.474 12.9561 243.223 14.0718 243.078ZM17.9025 243.919L14.2183 244.395C13.2885 244.515 12.4909 244.713 11.8253 244.988C11.151 245.256 10.604 245.595 10.1842 246.003C9.76436 246.412 9.47178 246.891 9.30643 247.44C9.14109 247.989 9.10198 248.601 9.18911 249.275C9.27323 249.926 9.46506 250.496 9.7646 250.985C10.0631 251.466 10.4679 251.855 10.9788 252.151C11.4888 252.44 12.1044 252.632 12.8258 252.728C13.5394 252.825 14.3611 252.813 15.2909 252.693L18.9751 252.217C19.9126 252.096 20.718 251.897 21.3913 251.621C22.0568 251.346 22.6029 250.999 23.0294 250.582C23.4472 250.158 23.7393 249.675 23.9057 249.133C24.071 248.584 24.1116 247.984 24.0275 247.333C23.9404 246.659 23.7475 246.082 23.449 245.6C23.1495 245.111 22.7447 244.722 22.2348 244.434C21.7171 244.146 21.1019 243.958 20.3893 243.869C19.6689 243.781 18.84 243.797 17.9025 243.919ZM6.11551 224.722L23.178 224.711L23.1789 226.059L6.11636 226.069L6.11551 224.722ZM6.10988 215.78L15.1842 222.103L15.1862 225.255L13.9206 225.397L13.9191 222.9L6.11094 217.456L6.10988 215.78ZM23.1732 217L15.0089 222.923L13.7311 222.162L23.1721 215.348L23.1732 217ZM13.8982 198.377L17.5765 198.689C18.7052 198.784 19.6908 198.997 20.5331 199.327C21.3683 199.649 22.0538 200.072 22.5897 200.595C23.1262 201.111 23.5175 201.72 23.7637 202.423C24.0022 203.126 24.0855 203.901 24.0136 204.75C23.9423 205.59 23.7301 206.337 23.3769 206.989C23.0166 207.633 22.528 208.172 21.9111 208.606C21.2941 209.039 20.5463 209.352 19.6675 209.545C18.7817 209.728 17.7744 209.772 16.6456 209.677L12.9674 209.365C11.8464 209.27 10.8647 209.058 10.0224 208.727C9.18006 208.397 8.49098 207.97 7.95515 207.447C7.41998 206.915 7.03284 206.302 6.79374 205.608C6.54752 204.905 6.46001 204.133 6.53124 203.292C6.60312 202.444 6.81955 201.694 7.18053 201.042C7.53372 200.39 8.01879 199.847 8.63574 199.413C9.25269 198.979 10.0038 198.674 10.889 198.498C11.7742 198.323 12.7772 198.282 13.8982 198.377ZM17.4647 200.008L13.7631 199.695C12.8289 199.615 12.0075 199.64 11.2989 199.768C10.5831 199.888 9.97682 200.103 9.48007 200.414C8.98331 200.724 8.59607 201.131 8.31835 201.632C8.04063 202.134 7.87308 202.724 7.8157 203.401C7.7603 204.055 7.82728 204.653 8.01664 205.194C8.20665 205.727 8.52002 206.193 8.95677 206.591C9.39417 206.981 9.95526 207.299 10.64 207.545C11.3171 207.79 12.1226 207.953 13.0568 208.032L16.7584 208.345C17.7003 208.425 18.5295 208.401 19.2459 208.274C19.9546 208.146 20.5615 207.923 21.0667 207.605C21.5648 207.279 21.9524 206.868 22.2294 206.374C22.5072 205.873 22.6737 205.295 22.7291 204.641C22.7865 203.964 22.7202 203.358 22.5302 202.825C22.3408 202.283 22.0274 201.818 21.59 201.428C21.1448 201.037 20.5834 200.723 19.9058 200.485C19.2203 200.247 18.4066 200.088 17.4647 200.008ZM8.23175 189.245L15.9739 186.585L9.55202 181.517L9.82042 179.946L17.3114 185.994L26.6609 182.693L26.3945 184.252L18.3997 187L25.0269 192.257L24.7585 193.828L17.039 187.588L7.96532 190.805L8.23175 189.245ZM13.5437 167.989L27.8387 176.75L27.493 178.089L12.3284 168.571L12.5657 167.652L13.5437 167.989ZM30.1704 167.718L13.4177 168.477L12.4046 168.276L12.6389 167.368L30.516 166.379L30.1704 167.718ZM24.1448 166.962L25.3589 167.275L23.4373 174.718L22.2232 174.405L24.1448 166.962ZM25.6358 151.401L26.8074 151.814L24.7744 157.583L23.6029 157.17L25.6358 151.401ZM30.0661 150.676L30.514 149.405C31.5608 149.89 32.4033 150.472 33.0416 151.153C33.6798 151.833 34.0867 152.606 34.2623 153.471C34.433 154.327 34.3418 155.255 33.9887 156.258C33.7135 157.039 33.2924 157.681 32.7254 158.186C32.161 158.683 31.4777 159.046 30.6757 159.277C29.8763 159.501 28.9916 159.579 28.0217 159.51C27.0471 159.432 26.0145 159.201 24.9239 158.816L22.9234 158.111C21.8329 157.727 20.8847 157.256 20.0788 156.699C19.2729 156.142 18.6286 155.525 18.1459 154.85C17.6658 154.167 17.3655 153.444 17.2451 152.681C17.1247 151.918 17.2047 151.139 17.4851 150.343C17.8304 149.363 18.3351 148.601 18.9991 148.056C19.6584 147.501 20.4537 147.16 21.3849 147.033C22.3088 146.903 23.3402 146.985 24.4792 147.278L24.0314 148.549C23.1381 148.334 22.3387 148.264 21.6333 148.338C20.923 148.403 20.3199 148.633 19.8239 149.03C19.3231 149.417 18.9377 149.993 18.6677 150.76C18.447 151.386 18.3947 151.993 18.5107 152.58C18.6293 153.161 18.8978 153.715 19.3163 154.243C19.7274 154.769 20.2739 155.252 20.9558 155.691C21.6377 156.13 22.4355 156.511 23.3492 156.832L25.3718 157.545C26.0718 157.792 26.7495 157.973 27.4048 158.088C28.0627 158.195 28.6785 158.234 29.2522 158.204C29.8286 158.167 30.3518 158.057 30.8219 157.875C31.292 157.693 31.6979 157.434 32.0397 157.099C32.3767 156.754 32.6321 156.335 32.8061 155.841C33.0865 155.045 33.1665 154.336 33.0462 153.714C32.9258 153.092 32.6165 152.535 32.1183 152.045C31.6154 151.545 30.9313 151.088 30.0661 150.676ZM22.5917 137.429L23.1704 136.199L37.4746 142.93L39.8446 137.893L25.5404 131.162L26.1142 129.943L40.4184 136.674L42.7833 131.648L28.4791 124.917L29.0479 123.708L44.4867 130.973L38.0305 144.694L22.5917 137.429ZM44.9654 112.537L44.6201 112.316C44.107 111.987 43.7861 111.554 43.6572 111.017C43.5325 110.473 43.6494 109.921 44.0077 109.362C44.3745 108.79 44.8342 108.449 45.3871 108.339C45.9333 108.226 46.4596 108.331 46.9661 108.656L47.3114 108.877C47.8179 109.202 48.1335 109.636 48.2581 110.18C48.3762 110.719 48.254 111.272 47.8914 111.838C47.5331 112.397 47.0841 112.735 46.5445 112.853C45.9982 112.967 45.4719 112.862 44.9654 112.537Z" fill="white" fill-opacity="0.2"/>
</svg>
